# xmcd
#
# Track frame offsets:
#	150
#	5898
#	24021
#	54519
#	83742
#	110190
#	134238
#	154761
#	182934
#	207282
#	240255
#	260328
#	267201
#	279999
#
# Disc length: 3825 seconds
#
# Revision: 1
# Processed by: cddbd v1.5.2PL0 Copyright (c) Steve Scherf et al.
# Submitted via: audiograbber 1.83.01
#
DISCID=c10eef0e
DTITLE=Erickson,Craig - Rare Tracks (Volume Two)
DYEAR=2013
DGENRE=Blues
TTITLE0=Deep blue circles
TTITLE1=Heavy stuff
TTITLE2=Time to fly
TTITLE3=Recovery Blues
TTITLE4=Purple haze (the trip)
TTITLE5=Crazy dreams
TTITLE6=Midnight zone
TTITLE7=Desert bounce
TTITLE8=Rain comes down
TTITLE9=Make it through
TTITLE10=Euphoria
TTITLE11=Midnight flight (reprise)
TTITLE12=We move on
TTITLE13=Blue ocean view
EXTD=
EXTT0=
EXTT1=
EXTT2=
EXTT3=
EXTT4=
EXTT5=
EXTT6=
EXTT7=
EXTT8=
EXTT9=
EXTT10=
EXTT11=
EXTT12=
EXTT13=
PLAYORDER=
